<?xml version="1.0" encoding="iso-8859-1"?>
<!-- Uploaded to: SVG Repo, www.svgrepo.com, Generator: SVG Repo Mixer Tools -->
<svg fill="#000000" height="800px" width="800px" version="1.1" id="Layer_1" xmlns="http://www.w3.org/2000/svg" xmlns:xlink="http://www.w3.org/1999/xlink" 
	 viewBox="0 0 511.994 511.994" xml:space="preserve">
<g>
	<g>
		<path d="M511.993,310.336c0-15.765-5.959-29.037-15.781-38.516c4.872-8.166,7.674-17.698,7.674-27.873
			c0-30.291-24.613-51.947-54.869-51.947H316.575l3.867-22.143c6.013-28.091,5.779-64.493,0.964-97.092
			C315.98,36.211,284.794,0,250.51,0h-1.984c-33.614,0-56.533,26.174-56.533,64c0,54.193-9.44,85.663-23.305,99.901
			c-5.488,5.635-9.901,7.005-12.239,6.849c0.311,0.023-1.832-0.083-1.832-0.083h-5.282v-0.006c0-11.782-9.551-21.333-21.333-21.333
			H21.334c-11.782,0-21.333,9.551-21.333,21.333v320c0,11.782,9.551,21.333,21.333,21.333h106.667
			c11.78,0,21.329-9.548,21.333-21.327h258.04c30.201,0,54.656-22.412,54.656-52.651c0-6.277-1.058-12.279-3.005-17.848
			c16.668-8.814,27.901-25.838,27.901-46.365c0-6.156-1.013-12.037-2.881-17.5C500.732,347.651,511.993,330.878,511.993,310.336z
			 M42.668,191.994h63.992c0,0.002,0,0.004,0,0.006v277.327H42.668V191.994z M457.358,320h-24.872c-0.043,0-0.084-0.006-0.127-0.006
			h-48.363c-11.782,0-21.333,9.551-21.333,21.333c0,11.782,9.551,21.333,21.333,21.333h48.087c0.091,0.001,0.18,0.006,0.272,0.006
			c6.933,0,11.904,4.812,11.904,11.136c0,5.936-4.587,10.197-11.904,10.197h-16.528c-0.043,0-0.084-0.006-0.127-0.006h-53.035
			c-11.782,0-21.333,9.551-21.333,21.333c0,11.782,9.551,21.333,21.333,21.333h44.436c0.091,0.001,0.18,0.006,0.272,0.006
			c6.869,0,11.989,4.983,11.989,11.349c0,5.803-4.562,9.984-11.989,9.984H149.334V213.333h4.449
			c13.928,0.877,30.525-4.317,45.472-19.666c22.829-23.442,35.404-65.364,35.404-129.667c0-15.429,5.17-21.333,13.867-21.333h1.984
			c10.009,0,26.061,18.639,28.69,36.348c4.128,27.948,4.331,59.457-0.636,82.717l-8.387,47.931
			c-2.28,13.052,7.765,25.004,21.015,25.004h157.824c7.821,0,12.203,3.855,12.203,9.28c0,6.571-5.516,12.053-12.203,12.053h-16.53
			c-0.043,0-0.084-0.006-0.127-0.006h-48.363c-11.782,0-21.333,9.551-21.333,21.333c0,11.782,9.551,21.333,21.333,21.333h39.767
			c0.091,0.001,0.18,0.006,0.272,0.006h30.485c9.908,0,14.805,4.245,14.805,11.669C469.326,316.011,464.913,320,457.358,320z"/>
	</g>
</g>
</svg>